<mxfile host="app.diagrams.net" agent="Mozilla/5.0 (Windows NT 10.0; Win64; x64) AppleWebKit/537.36 (KHTML, like Gecko) Chrome/131.0.0.0 Safari/537.36 Edg/131.0.0.0" version="24.9.0">
  <diagram name="Page-1" id="ie0mWBwd_xHVbYO48tsM">
    <mxGraphModel dx="945" dy="640" grid="1" gridSize="10" guides="1" tooltips="1" connect="1" arrows="1" fold="1" page="1" pageScale="1" pageWidth="827" pageHeight="1169" math="0" shadow="0">
      <root>
        <mxCell id="0" />
        <mxCell id="1" parent="0" />
        <mxCell id="r6EQ1AGuZd2LOuMyPDmY-4" value="" style="group" vertex="1" connectable="0" parent="1">
          <mxGeometry x="80" y="80" width="160" height="200" as="geometry" />
        </mxCell>
        <mxCell id="r6EQ1AGuZd2LOuMyPDmY-1" value="" style="rounded=0;whiteSpace=wrap;html=1;" vertex="1" parent="r6EQ1AGuZd2LOuMyPDmY-4">
          <mxGeometry width="160" height="200" as="geometry" />
        </mxCell>
        <mxCell id="r6EQ1AGuZd2LOuMyPDmY-2" value="&lt;font face=&quot;Comic Sans MS&quot; style=&quot;font-size: 22px;&quot;&gt;&lt;b style=&quot;&quot;&gt;I0&lt;/b&gt;&lt;/font&gt;" style="text;strokeColor=none;align=center;fillColor=none;html=1;verticalAlign=middle;whiteSpace=wrap;rounded=0;" vertex="1" parent="r6EQ1AGuZd2LOuMyPDmY-4">
          <mxGeometry width="40" height="40" as="geometry" />
        </mxCell>
        <mxCell id="r6EQ1AGuZd2LOuMyPDmY-3" value="&lt;font face=&quot;Lucida Console&quot;&gt;&lt;b&gt;S&#39; -&amp;gt; .S, #&lt;/b&gt;&lt;/font&gt;" style="text;strokeColor=none;align=center;fillColor=none;html=1;verticalAlign=middle;whiteSpace=wrap;rounded=0;fontSize=14;" vertex="1" parent="r6EQ1AGuZd2LOuMyPDmY-4">
          <mxGeometry x="25" y="40" width="110" height="30" as="geometry" />
        </mxCell>
        <mxCell id="r6EQ1AGuZd2LOuMyPDmY-5" value="&lt;font face=&quot;Lucida Console&quot;&gt;&lt;b&gt;S -&amp;gt; .aAd, #&lt;/b&gt;&lt;/font&gt;" style="text;strokeColor=none;align=center;fillColor=none;html=1;verticalAlign=middle;whiteSpace=wrap;rounded=0;fontSize=14;" vertex="1" parent="r6EQ1AGuZd2LOuMyPDmY-4">
          <mxGeometry x="25" y="70" width="110" height="30" as="geometry" />
        </mxCell>
        <mxCell id="r6EQ1AGuZd2LOuMyPDmY-11" value="&lt;font face=&quot;Lucida Console&quot;&gt;&lt;b&gt;S -&amp;gt; .bAc, #&lt;/b&gt;&lt;/font&gt;" style="text;strokeColor=none;align=center;fillColor=none;html=1;verticalAlign=middle;whiteSpace=wrap;rounded=0;fontSize=14;" vertex="1" parent="r6EQ1AGuZd2LOuMyPDmY-4">
          <mxGeometry x="25" y="100" width="110" height="30" as="geometry" />
        </mxCell>
        <mxCell id="r6EQ1AGuZd2LOuMyPDmY-12" value="&lt;font face=&quot;Lucida Console&quot;&gt;&lt;b&gt;S -&amp;gt; .aec, #&lt;/b&gt;&lt;/font&gt;" style="text;strokeColor=none;align=center;fillColor=none;html=1;verticalAlign=middle;whiteSpace=wrap;rounded=0;fontSize=14;" vertex="1" parent="r6EQ1AGuZd2LOuMyPDmY-4">
          <mxGeometry x="25" y="130" width="110" height="30" as="geometry" />
        </mxCell>
        <mxCell id="r6EQ1AGuZd2LOuMyPDmY-13" value="&lt;font face=&quot;Lucida Console&quot;&gt;&lt;b&gt;S -&amp;gt; .bed, #&lt;/b&gt;&lt;/font&gt;" style="text;strokeColor=none;align=center;fillColor=none;html=1;verticalAlign=middle;whiteSpace=wrap;rounded=0;fontSize=14;" vertex="1" parent="r6EQ1AGuZd2LOuMyPDmY-4">
          <mxGeometry x="25" y="160" width="110" height="30" as="geometry" />
        </mxCell>
        <mxCell id="r6EQ1AGuZd2LOuMyPDmY-14" value="" style="group" vertex="1" connectable="0" parent="1">
          <mxGeometry x="280" y="40" width="160" height="120" as="geometry" />
        </mxCell>
        <mxCell id="r6EQ1AGuZd2LOuMyPDmY-15" value="" style="rounded=0;whiteSpace=wrap;html=1;" vertex="1" parent="r6EQ1AGuZd2LOuMyPDmY-14">
          <mxGeometry width="160" height="80" as="geometry" />
        </mxCell>
        <mxCell id="r6EQ1AGuZd2LOuMyPDmY-16" value="&lt;font face=&quot;Comic Sans MS&quot; style=&quot;font-size: 22px;&quot;&gt;&lt;b style=&quot;&quot;&gt;I1&lt;/b&gt;&lt;/font&gt;" style="text;strokeColor=none;align=center;fillColor=none;html=1;verticalAlign=middle;whiteSpace=wrap;rounded=0;" vertex="1" parent="r6EQ1AGuZd2LOuMyPDmY-14">
          <mxGeometry width="40" height="40" as="geometry" />
        </mxCell>
        <mxCell id="r6EQ1AGuZd2LOuMyPDmY-17" value="&lt;font face=&quot;Lucida Console&quot;&gt;&lt;b&gt;S&#39; -&amp;gt; S., #&lt;/b&gt;&lt;/font&gt;" style="text;strokeColor=none;align=center;fillColor=none;html=1;verticalAlign=middle;whiteSpace=wrap;rounded=0;fontSize=14;" vertex="1" parent="r6EQ1AGuZd2LOuMyPDmY-14">
          <mxGeometry x="25" y="40" width="110" height="30" as="geometry" />
        </mxCell>
        <mxCell id="r6EQ1AGuZd2LOuMyPDmY-18" value="" style="group" vertex="1" connectable="0" parent="1">
          <mxGeometry x="280" y="160" width="160" height="140" as="geometry" />
        </mxCell>
        <mxCell id="r6EQ1AGuZd2LOuMyPDmY-19" value="" style="rounded=0;whiteSpace=wrap;html=1;" vertex="1" parent="r6EQ1AGuZd2LOuMyPDmY-18">
          <mxGeometry width="160" height="140" as="geometry" />
        </mxCell>
        <mxCell id="r6EQ1AGuZd2LOuMyPDmY-20" value="&lt;font face=&quot;Comic Sans MS&quot; style=&quot;font-size: 22px;&quot;&gt;&lt;b style=&quot;&quot;&gt;I2&lt;/b&gt;&lt;/font&gt;" style="text;strokeColor=none;align=center;fillColor=none;html=1;verticalAlign=middle;whiteSpace=wrap;rounded=0;" vertex="1" parent="r6EQ1AGuZd2LOuMyPDmY-18">
          <mxGeometry width="40" height="40" as="geometry" />
        </mxCell>
        <mxCell id="r6EQ1AGuZd2LOuMyPDmY-21" value="&lt;font face=&quot;Lucida Console&quot;&gt;&lt;b&gt;S -&amp;gt; a.Ad, #&lt;/b&gt;&lt;/font&gt;" style="text;strokeColor=none;align=center;fillColor=none;html=1;verticalAlign=middle;whiteSpace=wrap;rounded=0;fontSize=14;" vertex="1" parent="r6EQ1AGuZd2LOuMyPDmY-18">
          <mxGeometry x="25" y="40" width="110" height="30" as="geometry" />
        </mxCell>
        <mxCell id="r6EQ1AGuZd2LOuMyPDmY-26" value="&lt;font face=&quot;Lucida Console&quot;&gt;&lt;b&gt;S -&amp;gt; a.ec, #&lt;/b&gt;&lt;/font&gt;" style="text;strokeColor=none;align=center;fillColor=none;html=1;verticalAlign=middle;whiteSpace=wrap;rounded=0;fontSize=14;" vertex="1" parent="r6EQ1AGuZd2LOuMyPDmY-18">
          <mxGeometry x="25" y="70" width="110" height="30" as="geometry" />
        </mxCell>
        <mxCell id="r6EQ1AGuZd2LOuMyPDmY-27" value="&lt;font face=&quot;Lucida Console&quot;&gt;&lt;b&gt;S -&amp;gt; ., d&lt;/b&gt;&lt;/font&gt;" style="text;strokeColor=none;align=center;fillColor=none;html=1;verticalAlign=middle;whiteSpace=wrap;rounded=0;fontSize=14;" vertex="1" parent="r6EQ1AGuZd2LOuMyPDmY-18">
          <mxGeometry x="25" y="100" width="110" height="30" as="geometry" />
        </mxCell>
        <mxCell id="r6EQ1AGuZd2LOuMyPDmY-22" value="" style="group" vertex="1" connectable="0" parent="1">
          <mxGeometry x="80" y="320" width="160" height="140" as="geometry" />
        </mxCell>
        <mxCell id="r6EQ1AGuZd2LOuMyPDmY-23" value="" style="rounded=0;whiteSpace=wrap;html=1;" vertex="1" parent="r6EQ1AGuZd2LOuMyPDmY-22">
          <mxGeometry width="160" height="140" as="geometry" />
        </mxCell>
        <mxCell id="r6EQ1AGuZd2LOuMyPDmY-24" value="&lt;font face=&quot;Comic Sans MS&quot; style=&quot;font-size: 22px;&quot;&gt;&lt;b style=&quot;&quot;&gt;I3&lt;/b&gt;&lt;/font&gt;" style="text;strokeColor=none;align=center;fillColor=none;html=1;verticalAlign=middle;whiteSpace=wrap;rounded=0;" vertex="1" parent="r6EQ1AGuZd2LOuMyPDmY-22">
          <mxGeometry width="40" height="40" as="geometry" />
        </mxCell>
        <mxCell id="r6EQ1AGuZd2LOuMyPDmY-25" value="&lt;font face=&quot;Lucida Console&quot;&gt;&lt;b&gt;S -&amp;gt; b.Ac, #&lt;/b&gt;&lt;/font&gt;" style="text;strokeColor=none;align=center;fillColor=none;html=1;verticalAlign=middle;whiteSpace=wrap;rounded=0;fontSize=14;" vertex="1" parent="r6EQ1AGuZd2LOuMyPDmY-22">
          <mxGeometry x="25" y="40" width="110" height="30" as="geometry" />
        </mxCell>
        <mxCell id="r6EQ1AGuZd2LOuMyPDmY-28" value="&lt;font face=&quot;Lucida Console&quot;&gt;&lt;b&gt;S -&amp;gt; b.ed, #&lt;/b&gt;&lt;/font&gt;" style="text;strokeColor=none;align=center;fillColor=none;html=1;verticalAlign=middle;whiteSpace=wrap;rounded=0;fontSize=14;" vertex="1" parent="r6EQ1AGuZd2LOuMyPDmY-22">
          <mxGeometry x="25" y="70" width="110" height="30" as="geometry" />
        </mxCell>
        <mxCell id="r6EQ1AGuZd2LOuMyPDmY-29" value="&lt;font face=&quot;Lucida Console&quot;&gt;&lt;b&gt;S -&amp;gt; ., c&lt;/b&gt;&lt;/font&gt;" style="text;strokeColor=none;align=center;fillColor=none;html=1;verticalAlign=middle;whiteSpace=wrap;rounded=0;fontSize=14;" vertex="1" parent="r6EQ1AGuZd2LOuMyPDmY-22">
          <mxGeometry x="25" y="100" width="110" height="30" as="geometry" />
        </mxCell>
        <mxCell id="r6EQ1AGuZd2LOuMyPDmY-30" style="edgeStyle=orthogonalEdgeStyle;rounded=0;orthogonalLoop=1;jettySize=auto;html=1;exitX=0.5;exitY=1;exitDx=0;exitDy=0;entryX=0.5;entryY=0;entryDx=0;entryDy=0;" edge="1" parent="1" source="r6EQ1AGuZd2LOuMyPDmY-1" target="r6EQ1AGuZd2LOuMyPDmY-23">
          <mxGeometry relative="1" as="geometry" />
        </mxCell>
        <mxCell id="r6EQ1AGuZd2LOuMyPDmY-35" value="b" style="edgeLabel;html=1;align=center;verticalAlign=middle;resizable=0;points=[];" vertex="1" connectable="0" parent="r6EQ1AGuZd2LOuMyPDmY-30">
          <mxGeometry x="-0.3271" relative="1" as="geometry">
            <mxPoint y="6" as="offset" />
          </mxGeometry>
        </mxCell>
        <mxCell id="r6EQ1AGuZd2LOuMyPDmY-31" style="edgeStyle=orthogonalEdgeStyle;rounded=0;orthogonalLoop=1;jettySize=auto;html=1;exitX=1;exitY=0.75;exitDx=0;exitDy=0;entryX=0;entryY=0.5;entryDx=0;entryDy=0;" edge="1" parent="1" source="r6EQ1AGuZd2LOuMyPDmY-1" target="r6EQ1AGuZd2LOuMyPDmY-19">
          <mxGeometry relative="1" as="geometry" />
        </mxCell>
        <mxCell id="r6EQ1AGuZd2LOuMyPDmY-34" value="a" style="edgeLabel;html=1;align=center;verticalAlign=middle;resizable=0;points=[];" vertex="1" connectable="0" parent="r6EQ1AGuZd2LOuMyPDmY-31">
          <mxGeometry x="-0.1252" y="2" relative="1" as="geometry">
            <mxPoint as="offset" />
          </mxGeometry>
        </mxCell>
        <mxCell id="r6EQ1AGuZd2LOuMyPDmY-32" style="edgeStyle=orthogonalEdgeStyle;rounded=0;orthogonalLoop=1;jettySize=auto;html=1;exitX=0.5;exitY=0;exitDx=0;exitDy=0;entryX=0;entryY=0.5;entryDx=0;entryDy=0;" edge="1" parent="1" source="r6EQ1AGuZd2LOuMyPDmY-1" target="r6EQ1AGuZd2LOuMyPDmY-16">
          <mxGeometry relative="1" as="geometry" />
        </mxCell>
        <mxCell id="r6EQ1AGuZd2LOuMyPDmY-33" value="S" style="edgeLabel;html=1;align=center;verticalAlign=middle;resizable=0;points=[];" vertex="1" connectable="0" parent="r6EQ1AGuZd2LOuMyPDmY-32">
          <mxGeometry x="0.0179" relative="1" as="geometry">
            <mxPoint as="offset" />
          </mxGeometry>
        </mxCell>
        <mxCell id="r6EQ1AGuZd2LOuMyPDmY-36" value="" style="group" vertex="1" connectable="0" parent="1">
          <mxGeometry x="480" y="160" width="160" height="80" as="geometry" />
        </mxCell>
        <mxCell id="r6EQ1AGuZd2LOuMyPDmY-37" value="" style="rounded=0;whiteSpace=wrap;html=1;" vertex="1" parent="r6EQ1AGuZd2LOuMyPDmY-36">
          <mxGeometry width="160" height="60" as="geometry" />
        </mxCell>
        <mxCell id="r6EQ1AGuZd2LOuMyPDmY-38" value="&lt;font face=&quot;Comic Sans MS&quot; style=&quot;font-size: 22px;&quot;&gt;&lt;b style=&quot;&quot;&gt;I4&lt;/b&gt;&lt;/font&gt;" style="text;strokeColor=none;align=center;fillColor=none;html=1;verticalAlign=middle;whiteSpace=wrap;rounded=0;" vertex="1" parent="r6EQ1AGuZd2LOuMyPDmY-36">
          <mxGeometry width="40" height="26.666666666666668" as="geometry" />
        </mxCell>
        <mxCell id="r6EQ1AGuZd2LOuMyPDmY-40" value="&lt;font face=&quot;Lucida Console&quot;&gt;&lt;b&gt;S -&amp;gt; aA.d, #&lt;/b&gt;&lt;/font&gt;" style="text;strokeColor=none;align=center;fillColor=none;html=1;verticalAlign=middle;whiteSpace=wrap;rounded=0;fontSize=14;" vertex="1" parent="r6EQ1AGuZd2LOuMyPDmY-36">
          <mxGeometry x="25" y="26.670000000000016" width="110" height="30" as="geometry" />
        </mxCell>
        <mxCell id="r6EQ1AGuZd2LOuMyPDmY-42" value="" style="group" vertex="1" connectable="0" parent="1">
          <mxGeometry x="480" y="240" width="160" height="80" as="geometry" />
        </mxCell>
        <mxCell id="r6EQ1AGuZd2LOuMyPDmY-43" value="" style="rounded=0;whiteSpace=wrap;html=1;" vertex="1" parent="r6EQ1AGuZd2LOuMyPDmY-42">
          <mxGeometry width="160" height="60" as="geometry" />
        </mxCell>
        <mxCell id="r6EQ1AGuZd2LOuMyPDmY-44" value="&lt;font face=&quot;Comic Sans MS&quot; style=&quot;font-size: 22px;&quot;&gt;&lt;b style=&quot;&quot;&gt;I5&lt;/b&gt;&lt;/font&gt;" style="text;strokeColor=none;align=center;fillColor=none;html=1;verticalAlign=middle;whiteSpace=wrap;rounded=0;" vertex="1" parent="r6EQ1AGuZd2LOuMyPDmY-42">
          <mxGeometry width="40" height="26.666666666666668" as="geometry" />
        </mxCell>
        <mxCell id="r6EQ1AGuZd2LOuMyPDmY-45" value="&lt;font face=&quot;Lucida Console&quot;&gt;&lt;b&gt;S -&amp;gt; ae.c, #&lt;/b&gt;&lt;/font&gt;" style="text;strokeColor=none;align=center;fillColor=none;html=1;verticalAlign=middle;whiteSpace=wrap;rounded=0;fontSize=14;" vertex="1" parent="r6EQ1AGuZd2LOuMyPDmY-42">
          <mxGeometry x="25" y="26.670000000000016" width="110" height="30" as="geometry" />
        </mxCell>
        <mxCell id="r6EQ1AGuZd2LOuMyPDmY-46" value="" style="group" vertex="1" connectable="0" parent="1">
          <mxGeometry x="280" y="320" width="160" height="80" as="geometry" />
        </mxCell>
        <mxCell id="r6EQ1AGuZd2LOuMyPDmY-47" value="" style="rounded=0;whiteSpace=wrap;html=1;" vertex="1" parent="r6EQ1AGuZd2LOuMyPDmY-46">
          <mxGeometry width="160" height="60" as="geometry" />
        </mxCell>
        <mxCell id="r6EQ1AGuZd2LOuMyPDmY-48" value="&lt;font face=&quot;Comic Sans MS&quot; style=&quot;font-size: 22px;&quot;&gt;&lt;b style=&quot;&quot;&gt;I6&lt;/b&gt;&lt;/font&gt;" style="text;strokeColor=none;align=center;fillColor=none;html=1;verticalAlign=middle;whiteSpace=wrap;rounded=0;" vertex="1" parent="r6EQ1AGuZd2LOuMyPDmY-46">
          <mxGeometry width="40" height="26.666666666666668" as="geometry" />
        </mxCell>
        <mxCell id="r6EQ1AGuZd2LOuMyPDmY-49" value="&lt;font face=&quot;Lucida Console&quot;&gt;&lt;b&gt;S -&amp;gt; bA.c, #&lt;/b&gt;&lt;/font&gt;" style="text;strokeColor=none;align=center;fillColor=none;html=1;verticalAlign=middle;whiteSpace=wrap;rounded=0;fontSize=14;" vertex="1" parent="r6EQ1AGuZd2LOuMyPDmY-46">
          <mxGeometry x="25" y="26.670000000000016" width="110" height="30" as="geometry" />
        </mxCell>
        <mxCell id="r6EQ1AGuZd2LOuMyPDmY-50" value="" style="group" vertex="1" connectable="0" parent="1">
          <mxGeometry x="280" y="400" width="160" height="80" as="geometry" />
        </mxCell>
        <mxCell id="r6EQ1AGuZd2LOuMyPDmY-51" value="" style="rounded=0;whiteSpace=wrap;html=1;" vertex="1" parent="r6EQ1AGuZd2LOuMyPDmY-50">
          <mxGeometry width="160" height="60" as="geometry" />
        </mxCell>
        <mxCell id="r6EQ1AGuZd2LOuMyPDmY-52" value="&lt;font face=&quot;Comic Sans MS&quot; style=&quot;font-size: 22px;&quot;&gt;&lt;b style=&quot;&quot;&gt;I7&lt;/b&gt;&lt;/font&gt;" style="text;strokeColor=none;align=center;fillColor=none;html=1;verticalAlign=middle;whiteSpace=wrap;rounded=0;" vertex="1" parent="r6EQ1AGuZd2LOuMyPDmY-50">
          <mxGeometry width="40" height="26.666666666666668" as="geometry" />
        </mxCell>
        <mxCell id="r6EQ1AGuZd2LOuMyPDmY-53" value="&lt;font face=&quot;Lucida Console&quot;&gt;&lt;b&gt;S -&amp;gt; be.d, #&lt;/b&gt;&lt;/font&gt;" style="text;strokeColor=none;align=center;fillColor=none;html=1;verticalAlign=middle;whiteSpace=wrap;rounded=0;fontSize=14;" vertex="1" parent="r6EQ1AGuZd2LOuMyPDmY-50">
          <mxGeometry x="25" y="26.670000000000016" width="110" height="30" as="geometry" />
        </mxCell>
        <mxCell id="r6EQ1AGuZd2LOuMyPDmY-56" style="edgeStyle=orthogonalEdgeStyle;rounded=0;orthogonalLoop=1;jettySize=auto;html=1;exitX=1;exitY=0.25;exitDx=0;exitDy=0;entryX=0;entryY=0.588;entryDx=0;entryDy=0;entryPerimeter=0;" edge="1" parent="1" source="r6EQ1AGuZd2LOuMyPDmY-19" target="r6EQ1AGuZd2LOuMyPDmY-37">
          <mxGeometry relative="1" as="geometry" />
        </mxCell>
        <mxCell id="r6EQ1AGuZd2LOuMyPDmY-60" value="A" style="edgeLabel;html=1;align=center;verticalAlign=middle;resizable=0;points=[];" vertex="1" connectable="0" parent="r6EQ1AGuZd2LOuMyPDmY-56">
          <mxGeometry x="-0.0074" relative="1" as="geometry">
            <mxPoint y="-1" as="offset" />
          </mxGeometry>
        </mxCell>
        <mxCell id="r6EQ1AGuZd2LOuMyPDmY-57" style="edgeStyle=orthogonalEdgeStyle;rounded=0;orthogonalLoop=1;jettySize=auto;html=1;exitX=1;exitY=0.75;exitDx=0;exitDy=0;entryX=-0.02;entryY=0.946;entryDx=0;entryDy=0;entryPerimeter=0;" edge="1" parent="1" source="r6EQ1AGuZd2LOuMyPDmY-19" target="r6EQ1AGuZd2LOuMyPDmY-44">
          <mxGeometry relative="1" as="geometry" />
        </mxCell>
        <mxCell id="r6EQ1AGuZd2LOuMyPDmY-61" value="e" style="edgeLabel;html=1;align=center;verticalAlign=middle;resizable=0;points=[];" vertex="1" connectable="0" parent="r6EQ1AGuZd2LOuMyPDmY-57">
          <mxGeometry x="-0.0777" y="1" relative="1" as="geometry">
            <mxPoint as="offset" />
          </mxGeometry>
        </mxCell>
        <mxCell id="r6EQ1AGuZd2LOuMyPDmY-58" style="edgeStyle=orthogonalEdgeStyle;rounded=0;orthogonalLoop=1;jettySize=auto;html=1;exitX=1;exitY=0.25;exitDx=0;exitDy=0;entryX=0;entryY=0.584;entryDx=0;entryDy=0;entryPerimeter=0;" edge="1" parent="1" source="r6EQ1AGuZd2LOuMyPDmY-23" target="r6EQ1AGuZd2LOuMyPDmY-47">
          <mxGeometry relative="1" as="geometry" />
        </mxCell>
        <mxCell id="r6EQ1AGuZd2LOuMyPDmY-62" value="A" style="edgeLabel;html=1;align=center;verticalAlign=middle;resizable=0;points=[];" vertex="1" connectable="0" parent="r6EQ1AGuZd2LOuMyPDmY-58">
          <mxGeometry x="0.0091" y="-1" relative="1" as="geometry">
            <mxPoint as="offset" />
          </mxGeometry>
        </mxCell>
        <mxCell id="r6EQ1AGuZd2LOuMyPDmY-59" style="edgeStyle=orthogonalEdgeStyle;rounded=0;orthogonalLoop=1;jettySize=auto;html=1;exitX=1;exitY=0.75;exitDx=0;exitDy=0;entryX=-0.053;entryY=0.972;entryDx=0;entryDy=0;entryPerimeter=0;" edge="1" parent="1" source="r6EQ1AGuZd2LOuMyPDmY-23" target="r6EQ1AGuZd2LOuMyPDmY-52">
          <mxGeometry relative="1" as="geometry" />
        </mxCell>
        <mxCell id="r6EQ1AGuZd2LOuMyPDmY-63" value="e" style="edgeLabel;html=1;align=center;verticalAlign=middle;resizable=0;points=[];" vertex="1" connectable="0" parent="r6EQ1AGuZd2LOuMyPDmY-59">
          <mxGeometry x="-0.2694" y="3" relative="1" as="geometry">
            <mxPoint x="6" y="5" as="offset" />
          </mxGeometry>
        </mxCell>
        <mxCell id="r6EQ1AGuZd2LOuMyPDmY-64" value="" style="group" vertex="1" connectable="0" parent="1">
          <mxGeometry x="680" y="160" width="160" height="80" as="geometry" />
        </mxCell>
        <mxCell id="r6EQ1AGuZd2LOuMyPDmY-65" value="" style="rounded=0;whiteSpace=wrap;html=1;" vertex="1" parent="r6EQ1AGuZd2LOuMyPDmY-64">
          <mxGeometry width="160" height="60" as="geometry" />
        </mxCell>
        <mxCell id="r6EQ1AGuZd2LOuMyPDmY-66" value="&lt;font face=&quot;Comic Sans MS&quot; style=&quot;font-size: 22px;&quot;&gt;&lt;b style=&quot;&quot;&gt;I8&lt;/b&gt;&lt;/font&gt;" style="text;strokeColor=none;align=center;fillColor=none;html=1;verticalAlign=middle;whiteSpace=wrap;rounded=0;" vertex="1" parent="r6EQ1AGuZd2LOuMyPDmY-64">
          <mxGeometry width="40" height="26.666666666666668" as="geometry" />
        </mxCell>
        <mxCell id="r6EQ1AGuZd2LOuMyPDmY-67" value="&lt;font face=&quot;Lucida Console&quot;&gt;&lt;b&gt;S -&amp;gt; aAd., #&lt;/b&gt;&lt;/font&gt;" style="text;strokeColor=none;align=center;fillColor=none;html=1;verticalAlign=middle;whiteSpace=wrap;rounded=0;fontSize=14;" vertex="1" parent="r6EQ1AGuZd2LOuMyPDmY-64">
          <mxGeometry x="25" y="26.670000000000016" width="110" height="30" as="geometry" />
        </mxCell>
        <mxCell id="r6EQ1AGuZd2LOuMyPDmY-68" value="" style="group" vertex="1" connectable="0" parent="1">
          <mxGeometry x="680" y="240" width="160" height="80" as="geometry" />
        </mxCell>
        <mxCell id="r6EQ1AGuZd2LOuMyPDmY-69" value="" style="rounded=0;whiteSpace=wrap;html=1;" vertex="1" parent="r6EQ1AGuZd2LOuMyPDmY-68">
          <mxGeometry width="160" height="60" as="geometry" />
        </mxCell>
        <mxCell id="r6EQ1AGuZd2LOuMyPDmY-70" value="&lt;font face=&quot;Comic Sans MS&quot; style=&quot;font-size: 22px;&quot;&gt;&lt;b style=&quot;&quot;&gt;I9&lt;/b&gt;&lt;/font&gt;" style="text;strokeColor=none;align=center;fillColor=none;html=1;verticalAlign=middle;whiteSpace=wrap;rounded=0;" vertex="1" parent="r6EQ1AGuZd2LOuMyPDmY-68">
          <mxGeometry width="40" height="26.666666666666668" as="geometry" />
        </mxCell>
        <mxCell id="r6EQ1AGuZd2LOuMyPDmY-71" value="&lt;font face=&quot;Lucida Console&quot;&gt;&lt;b&gt;S -&amp;gt; aec., #&lt;/b&gt;&lt;/font&gt;" style="text;strokeColor=none;align=center;fillColor=none;html=1;verticalAlign=middle;whiteSpace=wrap;rounded=0;fontSize=14;" vertex="1" parent="r6EQ1AGuZd2LOuMyPDmY-68">
          <mxGeometry x="25" y="26.670000000000016" width="110" height="30" as="geometry" />
        </mxCell>
        <mxCell id="r6EQ1AGuZd2LOuMyPDmY-72" value="" style="group" vertex="1" connectable="0" parent="1">
          <mxGeometry x="480" y="320" width="160" height="80" as="geometry" />
        </mxCell>
        <mxCell id="r6EQ1AGuZd2LOuMyPDmY-73" value="" style="rounded=0;whiteSpace=wrap;html=1;" vertex="1" parent="r6EQ1AGuZd2LOuMyPDmY-72">
          <mxGeometry width="160" height="60" as="geometry" />
        </mxCell>
        <mxCell id="r6EQ1AGuZd2LOuMyPDmY-74" value="&lt;font face=&quot;Comic Sans MS&quot; style=&quot;font-size: 22px;&quot;&gt;&lt;b style=&quot;&quot;&gt;I10&lt;/b&gt;&lt;/font&gt;" style="text;strokeColor=none;align=center;fillColor=none;html=1;verticalAlign=middle;whiteSpace=wrap;rounded=0;" vertex="1" parent="r6EQ1AGuZd2LOuMyPDmY-72">
          <mxGeometry width="40" height="26.666666666666668" as="geometry" />
        </mxCell>
        <mxCell id="r6EQ1AGuZd2LOuMyPDmY-75" value="&lt;font face=&quot;Lucida Console&quot;&gt;&lt;b&gt;S -&amp;gt; bAc., #&lt;/b&gt;&lt;/font&gt;" style="text;strokeColor=none;align=center;fillColor=none;html=1;verticalAlign=middle;whiteSpace=wrap;rounded=0;fontSize=14;" vertex="1" parent="r6EQ1AGuZd2LOuMyPDmY-72">
          <mxGeometry x="25" y="26.670000000000016" width="110" height="30" as="geometry" />
        </mxCell>
        <mxCell id="r6EQ1AGuZd2LOuMyPDmY-76" value="" style="group" vertex="1" connectable="0" parent="1">
          <mxGeometry x="480" y="400" width="160" height="80" as="geometry" />
        </mxCell>
        <mxCell id="r6EQ1AGuZd2LOuMyPDmY-77" value="" style="rounded=0;whiteSpace=wrap;html=1;" vertex="1" parent="r6EQ1AGuZd2LOuMyPDmY-76">
          <mxGeometry width="160" height="60" as="geometry" />
        </mxCell>
        <mxCell id="r6EQ1AGuZd2LOuMyPDmY-78" value="&lt;font face=&quot;Comic Sans MS&quot; style=&quot;font-size: 22px;&quot;&gt;&lt;b style=&quot;&quot;&gt;I11&lt;/b&gt;&lt;/font&gt;" style="text;strokeColor=none;align=center;fillColor=none;html=1;verticalAlign=middle;whiteSpace=wrap;rounded=0;" vertex="1" parent="r6EQ1AGuZd2LOuMyPDmY-76">
          <mxGeometry width="40" height="26.666666666666668" as="geometry" />
        </mxCell>
        <mxCell id="r6EQ1AGuZd2LOuMyPDmY-79" value="&lt;font face=&quot;Lucida Console&quot;&gt;&lt;b&gt;S -&amp;gt; bed., #&lt;/b&gt;&lt;/font&gt;" style="text;strokeColor=none;align=center;fillColor=none;html=1;verticalAlign=middle;whiteSpace=wrap;rounded=0;fontSize=14;" vertex="1" parent="r6EQ1AGuZd2LOuMyPDmY-76">
          <mxGeometry x="25" y="26.670000000000016" width="110" height="30" as="geometry" />
        </mxCell>
        <mxCell id="r6EQ1AGuZd2LOuMyPDmY-80" style="edgeStyle=orthogonalEdgeStyle;rounded=0;orthogonalLoop=1;jettySize=auto;html=1;exitX=1;exitY=0.5;exitDx=0;exitDy=0;entryX=0;entryY=0.5;entryDx=0;entryDy=0;" edge="1" parent="1" source="r6EQ1AGuZd2LOuMyPDmY-37" target="r6EQ1AGuZd2LOuMyPDmY-65">
          <mxGeometry relative="1" as="geometry" />
        </mxCell>
        <mxCell id="r6EQ1AGuZd2LOuMyPDmY-82" value="d" style="edgeLabel;html=1;align=center;verticalAlign=middle;resizable=0;points=[];" vertex="1" connectable="0" parent="r6EQ1AGuZd2LOuMyPDmY-80">
          <mxGeometry x="0.1109" relative="1" as="geometry">
            <mxPoint as="offset" />
          </mxGeometry>
        </mxCell>
        <mxCell id="r6EQ1AGuZd2LOuMyPDmY-81" style="edgeStyle=orthogonalEdgeStyle;rounded=0;orthogonalLoop=1;jettySize=auto;html=1;exitX=1;exitY=0.5;exitDx=0;exitDy=0;entryX=0;entryY=0.5;entryDx=0;entryDy=0;" edge="1" parent="1" source="r6EQ1AGuZd2LOuMyPDmY-43" target="r6EQ1AGuZd2LOuMyPDmY-69">
          <mxGeometry relative="1" as="geometry" />
        </mxCell>
        <mxCell id="r6EQ1AGuZd2LOuMyPDmY-83" value="c" style="edgeLabel;html=1;align=center;verticalAlign=middle;resizable=0;points=[];" vertex="1" connectable="0" parent="r6EQ1AGuZd2LOuMyPDmY-81">
          <mxGeometry x="-0.0291" y="-1" relative="1" as="geometry">
            <mxPoint as="offset" />
          </mxGeometry>
        </mxCell>
        <mxCell id="r6EQ1AGuZd2LOuMyPDmY-84" style="edgeStyle=orthogonalEdgeStyle;rounded=0;orthogonalLoop=1;jettySize=auto;html=1;exitX=1;exitY=0.5;exitDx=0;exitDy=0;entryX=0;entryY=0.5;entryDx=0;entryDy=0;" edge="1" parent="1" source="r6EQ1AGuZd2LOuMyPDmY-47" target="r6EQ1AGuZd2LOuMyPDmY-73">
          <mxGeometry relative="1" as="geometry" />
        </mxCell>
        <mxCell id="r6EQ1AGuZd2LOuMyPDmY-85" value="c" style="edgeLabel;html=1;align=center;verticalAlign=middle;resizable=0;points=[];" vertex="1" connectable="0" parent="r6EQ1AGuZd2LOuMyPDmY-84">
          <mxGeometry x="-0.0636" relative="1" as="geometry">
            <mxPoint as="offset" />
          </mxGeometry>
        </mxCell>
        <mxCell id="r6EQ1AGuZd2LOuMyPDmY-86" style="edgeStyle=orthogonalEdgeStyle;rounded=0;orthogonalLoop=1;jettySize=auto;html=1;exitX=1;exitY=0.5;exitDx=0;exitDy=0;entryX=0;entryY=0.5;entryDx=0;entryDy=0;" edge="1" parent="1" source="r6EQ1AGuZd2LOuMyPDmY-51" target="r6EQ1AGuZd2LOuMyPDmY-77">
          <mxGeometry relative="1" as="geometry" />
        </mxCell>
        <mxCell id="r6EQ1AGuZd2LOuMyPDmY-87" value="d" style="edgeLabel;html=1;align=center;verticalAlign=middle;resizable=0;points=[];" vertex="1" connectable="0" parent="r6EQ1AGuZd2LOuMyPDmY-86">
          <mxGeometry x="-0.0836" y="2" relative="1" as="geometry">
            <mxPoint as="offset" />
          </mxGeometry>
        </mxCell>
      </root>
    </mxGraphModel>
  </diagram>
</mxfile>
